<svg id="Logo" xmlns="http://www.w3.org/2000/svg" viewBox="0 0 512 512"><defs><style>.cls-1{fill:#fff;}.cls-2,.cls-3{fill:none;stroke:#000;stroke-miterlimit:10;}.cls-3{stroke-width:2px;}</style></defs><title>logo</title><g id="logo-2" data-name="logo"><g id="popcorn"><path class="cls-1" d="M370.29,380.9l10.43,3.37c-51.33,42-229.48,41.08-275.45-2.66l58-16.76-1.6-5.55H327.19a12.14,12.14,0,0,0,8.36,10.37l11.58,3.75Z"/><path class="cls-1" d="M458.55,179.48A33.81,33.81,0,0,1,475,241.34l-47.88-15.47-2.56-.83-33.27-10.76a19.54,19.54,0,0,1,0-2.76,20.28,20.28,0,0,1,34.52-13A33.8,33.8,0,0,1,458.55,179.48Z"/><path class="cls-1" d="M482.22,272.09,443.55,391.78a12.2,12.2,0,0,1-15.34,7.84l-11.58-3.74,42.42-131.27,21.26,6.86Z"/><polygon class="cls-1" points="459.05 264.61 416.63 395.88 393.47 388.39 435.89 257.11 459.05 264.61"/><path class="cls-1" d="M427.14,225.87,475,241.34l13.61,4.4a13.52,13.52,0,1,1-8.32,25.73l-21.26-6.86-23.16-7.5-23.16-7.48-23.18-7.49-21.26-6.87a13.53,13.53,0,0,1,8.32-25.74l14.7,4.75L424.58,225Z"/><path class="cls-1" d="M412.73,249.63,389.5,321.48a148.89,148.89,0,0,0-14.17-35.32l14.22-44Z"/><path class="cls-1" d="M394.62,359.3h-.31a150.19,150.19,0,0,0-4.81-37.82l23.23-71.85,23.16,7.48L393.47,388.39l-12.75-4.12C389.4,377.17,394.45,368.85,394.62,359.3Z"/><path class="cls-1" d="M394.31,359.3h.31c-.17,9.55-5.22,17.87-13.9,25l-10.43-3.37,7-21.6Z"/><path class="cls-1" d="M394.31,359.3h-17l12.23-37.82A150.19,150.19,0,0,1,394.31,359.3Z"/><path class="cls-1" d="M389.55,242.14l-14.22,44a150.86,150.86,0,0,0-17.51-25l8.57-26.53,1.9.61Z"/><path class="cls-1" d="M389.5,321.48,377.27,359.3H351.69l23.64-73.14A148.89,148.89,0,0,1,389.5,321.48Z"/><polygon class="cls-1" points="377.27 359.3 370.29 380.9 347.13 373.42 351.69 359.3 377.27 359.3"/><path class="cls-1" d="M375.33,286.16,351.69,359.3h-24.5a11.88,11.88,0,0,1,.52-4.95l30.11-93.16A150.86,150.86,0,0,1,375.33,286.16Z"/><path class="cls-1" d="M357.82,261.19l-30.11,93.16a11.88,11.88,0,0,0-.52,4.95H161.68l-29-100.5A150.23,150.23,0,0,1,193.22,218a71,71,0,0,0,100.92-.36A150.36,150.36,0,0,1,357.82,261.19Z"/><path class="cls-1" d="M351.69,359.3l-4.56,14.12-11.58-3.75a12.14,12.14,0,0,1-8.36-10.37Z"/><path class="cls-1" d="M243.5,96.91a71,71,0,0,1,50.64,120.77,150.86,150.86,0,0,0-100.92.36A71,71,0,0,1,243.5,96.91Z"/><path class="cls-1" d="M294.14,217.68a71,71,0,0,1-100.92.36,150.86,150.86,0,0,1,100.92-.36Z"/><path class="cls-1" d="M161.68,359.3l1.6,5.55-58,16.76c-5.47-5.2-9.07-11-10.36-17.42l16.93-4.89Z"/><path class="cls-1" d="M95.09,341.61q-.68,5.7-.91,11.52-.14,3.06-.13,6.17h.33a25.51,25.51,0,0,0,.53,4.89c1.29,6.41,4.89,12.22,10.36,17.42L51.53,397.13,14,267.19l111.75-32.28,6.9,23.89a151.32,151.32,0,0,0-15.25,20.05,149.12,149.12,0,0,0-7.6,13.46q-3.15,6.29-5.71,12.91-2.37,6.11-4.19,12.47c-1.15,4-2.14,8-3,12.12Q95.78,335.63,95.09,341.61Z"/><path class="cls-1" d="M111.84,359.3l-16.93,4.89a25.51,25.51,0,0,1-.53-4.89Z"/><path class="cls-1" d="M94.18,353.13q.22-5.82.91-11.52.69-6,1.86-11.8c.81-4.1,1.8-8.15,3-12.12q1.81-6.36,4.19-12.47,2.55-6.62,5.71-12.91a149.12,149.12,0,0,1,7.6-13.46,151.32,151.32,0,0,1,15.25-20.05l29,100.5H94.05Q94.05,356.2,94.18,353.13Z"/><path class="cls-2" d="M193.22,218a71,71,0,1,1,100.92-.36"/><path class="cls-2" d="M132.65,258.8a150,150,0,0,1,225.17,2.39"/><path class="cls-2" d="M105.27,381.61c46,43.74,224.12,44.62,275.45,2.66"/><polygon class="cls-2" points="161.68 359.3 163.28 364.85 105.27 381.61 51.53 397.13 14 267.19 125.75 234.91 132.65 258.8 161.68 359.3"/><line class="cls-3" x1="32.71" y1="280.79" x2="118.47" y2="256.02"/><line class="cls-3" x1="35.71" y1="291.18" x2="121.47" y2="266.41"/><polyline class="cls-3" points="38.72 301.58 117.4 278.85 124.48 276.81"/><polyline class="cls-3" points="41.72 311.97 109.8 292.31 127.48 287.2"/><polyline class="cls-3" points="44.72 322.37 104.09 305.22 130.48 297.6"/><polyline class="cls-3" points="47.72 332.76 99.9 317.69 133.48 307.99"/><polyline class="cls-3" points="50.72 343.16 96.95 329.81 136.49 318.39"/><polyline class="cls-3" points="53.73 353.55 95.09 341.61 139.49 328.78"/><polyline class="cls-3" points="56.73 363.95 94.18 353.13 142.49 339.18"/><polyline class="cls-3" points="59.73 374.35 94.91 364.19 111.84 359.3 145.49 349.58"/><path class="cls-2" d="M347.13,373.42l-11.58-3.75a12.14,12.14,0,0,1-8.36-10.37,11.88,11.88,0,0,1,.52-4.95l30.11-93.16,8.57-26.53,1.9.61"/><path class="cls-2" d="M480.31,271.47l1.91.62L443.55,391.78a12.2,12.2,0,0,1-15.34,7.84l-11.58-3.74"/><polyline class="cls-2" points="370.29 380.9 347.13 373.42 351.69 359.3 375.33 286.16 389.55 242.14"/><polyline class="cls-2" points="393.47 388.39 380.72 384.27 370.29 380.9 377.27 359.3 389.5 321.48 412.73 249.63"/><polyline class="cls-2" points="459.05 264.61 416.63 395.88 393.47 388.39 435.89 257.11"/><path class="cls-2" d="M391.31,214.28a19.54,19.54,0,0,1,0-2.76,20.28,20.28,0,0,1,34.52-13A33.81,33.81,0,1,1,475,241.34"/><path class="cls-2" d="M475,241.34l13.61,4.4a13.52,13.52,0,1,1-8.32,25.73l-21.26-6.86-23.16-7.5-23.16-7.48-23.18-7.49-21.26-6.87a13.53,13.53,0,0,1,8.32-25.74l14.7,4.75L424.58,225l2.56.83Z"/></g></g></svg>